<svg width="92" height="84" viewBox="0 0 92 84" fill="none" xmlns="http://www.w3.org/2000/svg">
<path d="M9.33268 0.75H55.166V9.91667H9.33268V74.0833H82.666V37.4167H91.8327V83.25H0.166016V0.75H9.33268ZM55.166 28.25H45.9994V37.4167H36.8327V46.5833H27.666V55.75H18.4993V64.9167H27.666V55.75H36.8327V46.5833H45.9994V37.4167H55.166V46.5833H64.3327V55.75H73.4994V46.5833H64.3327V37.4167H55.166V28.25ZM27.666 19.0833H18.4993V28.25H27.666V19.0833ZM73.4994 0.75H82.666V9.91667H91.8327V19.0833H82.666V28.25H73.4994V19.0833H64.3327V9.91667H73.4994V0.75Z" fill="#C1A9E0"/>
</svg>
