<svg width="116" height="115" viewBox="0 0 116 115" fill="none" xmlns="http://www.w3.org/2000/svg">
<path d="M18.7723 19.893L41.4679 7.84473H58.2795H77.6129L96.1056 19.893L107.313 39.2264L110.115 58.5597L106.473 80.1346L96.3858 95.265L78.7336 107.033L58.2795 107.594L35.3037 105.072L18.7723 94.4244L7.84473 74.2505V41.4679L18.7723 19.893Z" fill="#EB595A"/>
<rect x="43.71" width="29.7005" height="4.48309" fill="#392619"/>
<rect width="29.7005" height="4.48309" transform="matrix(1 0 0 -1 43.71 114.879)" fill="#392619"/>
<rect x="35.3047" y="3.92285" width="8.4058" height="4.48309" fill="#392619"/>
<rect width="8.4058" height="4.48309" transform="matrix(1 0 0 -1 35.3047 110.957)" fill="#392619"/>
<rect x="26.8984" y="7.84473" width="8.4058" height="4.48309" fill="#392619"/>
<rect width="8.4058" height="4.48309" transform="matrix(1 0 0 -1 26.8984 107.034)" fill="#392619"/>
<rect x="22.416" y="11.7676" width="4.48309" height="4.48309" fill="#392619"/>
<rect width="4.48309" height="4.48309" transform="matrix(1 0 0 -1 22.416 103.11)" fill="#392619"/>
<rect x="17.9326" y="15.6904" width="4.48309" height="4.48309" fill="#392619"/>
<rect width="4.48309" height="4.48309" transform="matrix(1 0 0 -1 17.9326 99.1885)" fill="#392619"/>
<rect x="13.4492" y="19.6143" width="4.48309" height="4.48309" fill="#392619"/>
<rect width="4.48309" height="4.48309" transform="matrix(1 0 0 -1 13.4492 95.2656)" fill="#392619"/>
<rect x="8.96582" y="23.5361" width="4.48309" height="10.6473" fill="#392619"/>
<rect width="4.48309" height="10.6473" transform="matrix(1 0 0 -1 8.96582 91.3428)" fill="#392619"/>
<rect x="4.4834" y="34.1836" width="4.48309" height="8.4058" fill="#392619"/>
<rect x="43.709" y="3.92285" width="29.7005" height="4.48309" fill="#FFD16B"/>
<rect x="43.709" y="3.92285" width="29.7005" height="4.48309" fill="#B4CEFF"/>
<rect x="43.709" y="3.92285" width="29.7005" height="4.48309" fill="#F4A0A1"/>
<rect x="35.3037" y="7.8457" width="8.4058" height="4.48309" fill="#FFD16B"/>
<rect x="35.3037" y="7.8457" width="8.4058" height="4.48309" fill="#B4CEFF"/>
<rect x="35.3037" y="7.8457" width="8.4058" height="4.48309" fill="#F4A0A1"/>
<rect x="26.8984" y="11.7676" width="8.4058" height="4.48309" fill="#FFD16B"/>
<rect x="26.8984" y="11.7676" width="8.4058" height="4.48309" fill="#B4CEFF"/>
<rect x="26.8984" y="11.7676" width="8.4058" height="4.48309" fill="#F4A0A1"/>
<rect x="22.415" y="15.6904" width="8.4058" height="4.48309" fill="#FFD16B"/>
<rect x="22.415" y="15.6904" width="8.4058" height="4.48309" fill="#B4CEFF"/>
<rect x="22.415" y="15.6904" width="8.4058" height="4.48309" fill="#F4A0A1"/>
<rect x="17.9316" y="19.6133" width="8.96618" height="4.48309" fill="#FFD16B"/>
<rect x="17.9316" y="19.6133" width="8.96618" height="4.48309" fill="#B4CEFF"/>
<rect x="17.9316" y="19.6133" width="8.96618" height="4.48309" fill="#F4A0A1"/>
<rect x="17.9316" y="90.2227" width="4.48309" height="4.48309" fill="#FFD16B"/>
<rect x="17.9316" y="90.2227" width="4.48309" height="4.48309" fill="#B4CEFF"/>
<rect x="17.9316" y="90.2227" width="4.48309" height="4.48309" fill="#F4A0A1"/>
<rect x="22.415" y="94.7051" width="4.48309" height="4.48309" fill="#FFD16B"/>
<rect x="22.415" y="94.7051" width="4.48309" height="4.48309" fill="#B4CEFF"/>
<rect x="22.415" y="94.7051" width="4.48309" height="4.48309" fill="#F4A0A1"/>
<rect x="13.4482" y="23.5371" width="8.96618" height="4.48309" fill="#FFD16B"/>
<rect x="13.4482" y="23.5371" width="8.96618" height="4.48309" fill="#B4CEFF"/>
<rect x="13.4482" y="23.5371" width="8.96618" height="4.48309" fill="#F4A0A1"/>
<rect x="13.4482" y="28.0195" width="5.04348" height="4.48309" fill="#FFD16B"/>
<rect x="13.4482" y="28.0195" width="5.04348" height="4.48309" fill="#B4CEFF"/>
<rect x="13.4482" y="28.0195" width="5.04348" height="4.48309" fill="#F4A0A1"/>
<rect x="13.4482" y="80.6963" width="5.04348" height="10.087" fill="#FFD16B"/>
<rect x="13.4482" y="80.6963" width="5.04348" height="10.087" fill="#B4CEFF"/>
<rect x="13.4482" y="80.6963" width="5.04348" height="10.087" fill="#F4A0A1"/>
<rect x="8.96582" y="33.623" width="4.48309" height="10.6473" fill="#FFD16B"/>
<rect x="8.96582" y="33.623" width="4.48309" height="10.6473" fill="#B4CEFF"/>
<rect x="8.96582" y="33.623" width="4.48309" height="10.6473" fill="#F4A0A1"/>
<rect x="8.96582" y="72.29" width="4.48309" height="8.4058" fill="#FFD16B"/>
<rect x="8.96582" y="72.29" width="4.48309" height="8.4058" fill="#B4CEFF"/>
<rect x="8.96582" y="72.29" width="4.48309" height="8.4058" fill="#F4A0A1"/>
<rect x="4.48242" y="42.5898" width="4.48309" height="29.7005" fill="#FFD16B"/>
<rect x="4.48242" y="42.5898" width="4.48309" height="29.7005" fill="#B4CEFF"/>
<rect x="4.48242" y="42.5898" width="4.48309" height="29.7005" fill="#F4A0A1"/>
<rect width="4.48309" height="8.4058" transform="matrix(1 0 0 -1 4.4834 80.6953)" fill="#392619"/>
<rect y="42.5898" width="4.48309" height="29.7005" fill="#392619"/>
<rect width="8.4058" height="4.48309" transform="matrix(-1 0 0 1 80.6953 3.92285)" fill="#392619"/>
<rect x="80.6953" y="110.957" width="8.4058" height="4.48309" transform="rotate(-180 80.6953 110.957)" fill="#392619"/>
<rect width="8.4058" height="4.48309" transform="matrix(-1 0 0 1 89.1016 7.84473)" fill="#392619"/>
<rect x="89.1016" y="107.034" width="8.4058" height="4.48309" transform="rotate(-180 89.1016 107.034)" fill="#392619"/>
<rect width="4.48309" height="4.48309" transform="matrix(-1 0 0 1 93.584 11.7676)" fill="#392619"/>
<rect width="8.4058" height="4.48309" transform="matrix(-1 0 0 1 80.6953 7.8457)" fill="#FDA838"/>
<rect width="8.4058" height="4.48309" transform="matrix(-1 0 0 1 80.6953 7.8457)" fill="#367DFF"/>
<rect width="8.4058" height="4.48309" transform="matrix(-1 0 0 1 80.6953 7.8457)" fill="#E42021"/>
<rect width="8.4058" height="4.48309" transform="matrix(-1 0 0 1 89.1016 12.3291)" fill="#FDA838"/>
<rect width="8.4058" height="4.48309" transform="matrix(-1 0 0 1 89.1016 12.3291)" fill="#367DFF"/>
<rect width="8.4058" height="4.48309" transform="matrix(-1 0 0 1 89.1016 12.3291)" fill="#E42021"/>
<rect width="4.48309" height="4.48309" transform="matrix(-1 0 0 1 93.584 16.252)" fill="#FDA838"/>
<rect width="4.48309" height="4.48309" transform="matrix(-1 0 0 1 93.584 16.252)" fill="#367DFF"/>
<rect width="4.48309" height="4.48309" transform="matrix(-1 0 0 1 93.584 16.252)" fill="#E42021"/>
<rect width="4.48309" height="4.48309" transform="matrix(-1 0 0 1 98.0674 20.1738)" fill="#FDA838"/>
<rect width="4.48309" height="4.48309" transform="matrix(-1 0 0 1 98.0674 20.1738)" fill="#367DFF"/>
<rect width="4.48309" height="4.48309" transform="matrix(-1 0 0 1 98.0674 20.1738)" fill="#E42021"/>
<rect width="4.48309" height="10.087" transform="matrix(-1 0 0 1 102.551 24.0967)" fill="#FDA838"/>
<rect width="4.48309" height="10.087" transform="matrix(-1 0 0 1 102.551 24.0967)" fill="#367DFF"/>
<rect width="4.48309" height="10.087" transform="matrix(-1 0 0 1 102.551 24.0967)" fill="#E42021"/>
<rect width="4.48309" height="12.3285" transform="matrix(-1 0 0 1 107.033 34.1846)" fill="#FDA838"/>
<rect width="4.48309" height="12.3285" transform="matrix(-1 0 0 1 107.033 34.1846)" fill="#367DFF"/>
<rect width="4.48309" height="12.3285" transform="matrix(-1 0 0 1 107.033 34.1846)" fill="#E42021"/>
<rect width="4.48309" height="29.7005" transform="matrix(-1 0 0 1 111.517 42.5898)" fill="#FDA838"/>
<rect width="4.48309" height="29.7005" transform="matrix(-1 0 0 1 111.517 42.5898)" fill="#367DFF"/>
<rect width="4.48309" height="29.7005" transform="matrix(-1 0 0 1 111.517 42.5898)" fill="#E42021"/>
<rect width="4.48309" height="8.4058" transform="matrix(-1 0 0 1 107.033 72.29)" fill="#FDA838"/>
<rect width="4.48309" height="8.4058" transform="matrix(-1 0 0 1 107.033 72.29)" fill="#367DFF"/>
<rect width="4.48309" height="8.4058" transform="matrix(-1 0 0 1 107.033 72.29)" fill="#E42021"/>
<rect width="4.48309" height="10.087" transform="matrix(-1 0 0 1 102.551 80.6963)" fill="#FDA838"/>
<rect width="4.48309" height="10.087" transform="matrix(-1 0 0 1 102.551 80.6963)" fill="#367DFF"/>
<rect width="4.48309" height="10.087" transform="matrix(-1 0 0 1 102.551 80.6963)" fill="#E42021"/>
<rect width="4.48309" height="5.60386" transform="matrix(-1 0 0 1 98.0674 89.1016)" fill="#FDA838"/>
<rect width="4.48309" height="5.60386" transform="matrix(-1 0 0 1 98.0674 89.1016)" fill="#367DFF"/>
<rect width="4.48309" height="5.60386" transform="matrix(-1 0 0 1 98.0674 89.1016)" fill="#E42021"/>
<rect width="4.48309" height="5.60386" transform="matrix(-1 0 0 1 93.584 93.0244)" fill="#FDA838"/>
<rect width="4.48309" height="5.60386" transform="matrix(-1 0 0 1 93.584 93.0244)" fill="#367DFF"/>
<rect width="4.48309" height="5.60386" transform="matrix(-1 0 0 1 93.584 93.0244)" fill="#E42021"/>
<rect width="8.4058" height="5.04348" transform="matrix(-1 0 0 1 89.1016 97.5068)" fill="#FDA838"/>
<rect width="8.4058" height="5.04348" transform="matrix(-1 0 0 1 89.1016 97.5068)" fill="#367DFF"/>
<rect width="8.4058" height="5.04348" transform="matrix(-1 0 0 1 89.1016 97.5068)" fill="#E42021"/>
<rect width="8.4058" height="4.48309" transform="matrix(-1 0 0 1 80.6953 101.99)" fill="#FDA838"/>
<rect width="8.4058" height="4.48309" transform="matrix(-1 0 0 1 80.6953 101.99)" fill="#367DFF"/>
<rect width="8.4058" height="4.48309" transform="matrix(-1 0 0 1 80.6953 101.99)" fill="#E42021"/>
<rect width="28.5797" height="4.48309" transform="matrix(-1 0 0 1 72.29 105.913)" fill="#FDA838"/>
<rect width="28.5797" height="4.48309" transform="matrix(-1 0 0 1 72.29 105.913)" fill="#367DFF"/>
<rect width="28.5797" height="4.48309" transform="matrix(-1 0 0 1 72.29 105.913)" fill="#E42021"/>
<rect width="8.4058" height="4.48309" transform="matrix(-1 0 0 1 43.71 101.99)" fill="#FDA838"/>
<rect width="8.4058" height="4.48309" transform="matrix(-1 0 0 1 43.71 101.99)" fill="#367DFF"/>
<rect width="8.4058" height="4.48309" transform="matrix(-1 0 0 1 43.71 101.99)" fill="#E42021"/>
<rect width="8.4058" height="4.48309" transform="matrix(-1 0 0 1 35.3047 98.0684)" fill="#FDA838"/>
<rect width="8.4058" height="4.48309" transform="matrix(-1 0 0 1 35.3047 98.0684)" fill="#367DFF"/>
<rect width="8.4058" height="4.48309" transform="matrix(-1 0 0 1 35.3047 98.0684)" fill="#E42021"/>
<rect x="93.584" y="103.11" width="4.48309" height="4.48309" transform="rotate(-180 93.584 103.11)" fill="#392619"/>
<rect width="4.48309" height="4.48309" transform="matrix(-1 0 0 1 98.0674 15.6904)" fill="#392619"/>
<rect x="98.0674" y="99.1885" width="4.48309" height="4.48309" transform="rotate(-180 98.0674 99.1885)" fill="#392619"/>
<rect width="4.48309" height="4.48309" transform="matrix(-1 0 0 1 102.551 19.6143)" fill="#392619"/>
<rect x="102.551" y="95.2656" width="4.48309" height="4.48309" transform="rotate(-180 102.551 95.2656)" fill="#392619"/>
<rect width="4.48309" height="10.6473" transform="matrix(-1 0 0 1 107.034 23.5361)" fill="#392619"/>
<rect x="107.034" y="91.3428" width="4.48309" height="10.6473" transform="rotate(-180 107.034 91.3428)" fill="#392619"/>
<rect width="4.48309" height="8.4058" transform="matrix(-1 0 0 1 111.517 34.1836)" fill="#392619"/>
<rect x="111.517" y="80.6953" width="4.48309" height="8.4058" transform="rotate(-180 111.517 80.6953)" fill="#392619"/>
<rect width="4.48309" height="29.7005" transform="matrix(-1 0 0 1 116 42.5898)" fill="#392619"/>
<rect x="52.583" y="25" width="5.91667" height="5.91667" fill="#D9855E"/>
<rect x="52.583" y="30.917" width="5.91667" height="5.91667" fill="#D9855E"/>
<rect x="52.583" y="36.833" width="5.91667" height="5.91667" fill="#D9855E"/>
<rect x="52.583" y="42.75" width="5.91667" height="5.91667" fill="#D9855E"/>
<rect x="58.5" y="25" width="5.91667" height="5.91667" fill="#D9855E"/>
<rect x="58.5" y="30.917" width="5.91667" height="5.91667" fill="#D9855E"/>
<rect x="64.416" y="30.917" width="5.91667" height="5.91667" fill="#D9855E"/>
<rect x="40.75" y="30.917" width="5.91667" height="5.91667" fill="#D9855E"/>
<rect x="34.833" y="36.833" width="5.91667" height="5.91667" fill="#D9855E"/>
<rect width="5.91667" height="5.91667" transform="matrix(-1 0 0 1 82.166 36.833)" fill="#D9855E"/>
<rect x="34.833" y="48.667" width="5.91667" height="5.91667" fill="#D9855E"/>
<rect width="5.91667" height="5.91667" transform="matrix(-1 0 0 1 82.166 48.667)" fill="#D9855E"/>
<rect x="34.833" y="60.5" width="5.91667" height="5.91667" fill="#D9855E"/>
<rect width="5.91667" height="5.91667" transform="matrix(-1 0 0 1 82.166 60.5)" fill="#D9855E"/>
<rect x="70.333" y="30.917" width="5.91667" height="5.91667" fill="#D9855E"/>
<rect x="46.666" y="30.917" width="5.91667" height="5.91667" fill="#D9855E"/>
<rect x="58.5" y="36.833" width="5.91667" height="5.91667" fill="#D9855E"/>
<rect x="64.416" y="36.833" width="5.91667" height="5.91667" fill="#D9855E"/>
<rect x="40.75" y="36.833" width="5.91667" height="5.91667" fill="#D9855E"/>
<rect x="34.833" y="42.75" width="5.91667" height="5.91667" fill="#D9855E"/>
<rect width="5.91667" height="5.91667" transform="matrix(-1 0 0 1 82.166 42.75)" fill="#D9855E"/>
<rect x="34.833" y="54.583" width="5.91667" height="5.91667" fill="#D9855E"/>
<rect width="5.91667" height="5.91667" transform="matrix(-1 0 0 1 82.166 54.583)" fill="#D9855E"/>
<rect x="34.833" y="66.417" width="5.91667" height="5.91667" fill="#D9855E"/>
<rect width="5.91667" height="5.91667" transform="matrix(-1 0 0 1 82.166 66.417)" fill="#D9855E"/>
<rect x="34.833" y="72.333" width="5.91667" height="5.91667" fill="#D9855E"/>
<rect x="34.833" y="78.25" width="5.91667" height="5.91667" fill="#D9855E"/>
<rect width="5.91667" height="5.91667" transform="matrix(-1 0 0 1 82.166 72.333)" fill="#D9855E"/>
<rect width="5.91667" height="5.91667" transform="matrix(-1 0 0 1 82.166 78.25)" fill="#D9855E"/>
<rect x="40.75" y="72.333" width="5.91667" height="5.91667" fill="#D9855E"/>
<rect width="5.91667" height="5.91667" transform="matrix(-1 0 0 1 76.25 72.333)" fill="#D9855E"/>
<rect x="70.333" y="36.833" width="5.91667" height="5.91667" fill="#D9855E"/>
<rect x="46.666" y="36.833" width="5.91667" height="5.91667" fill="#D9855E"/>
<rect x="58.5" y="42.75" width="5.91667" height="5.91667" fill="#D9855E"/>
<rect x="40.75" y="42.75" width="5.91667" height="5.91667" fill="#FFD6A6"/>
<rect x="40.75" y="48.667" width="5.91667" height="5.91667" fill="#FFD6A6"/>
<rect x="40.75" y="66.417" width="5.91667" height="5.91667" fill="#FFD6A6"/>
<rect x="40.75" y="54.583" width="5.91667" height="5.91667" fill="#FFD6A6"/>
<rect x="40.75" y="60.5" width="5.91667" height="5.91667" fill="#FFD6A6"/>
<rect x="46.666" y="42.75" width="5.91667" height="5.91667" fill="#FFD6A6"/>
<rect x="46.666" y="48.667" width="5.91667" height="5.91667" fill="#FFD6A6"/>
<rect x="46.666" y="54.583" width="5.91667" height="5.91667" fill="#211914"/>
<rect x="64.416" y="54.583" width="5.91667" height="5.91667" fill="#211914"/>
<rect x="46.666" y="60.5" width="5.91667" height="5.91667" fill="#211914"/>
<rect x="64.416" y="60.5" width="5.91667" height="5.91667" fill="#211914"/>
<rect x="46.666" y="72.333" width="5.91667" height="5.91667" fill="#FFD6A6"/>
<rect x="46.666" y="78.25" width="5.91667" height="5.91667" fill="#FFD6A6"/>
<rect x="40.75" y="78.25" width="5.91667" height="5.91667" fill="#FFC78E"/>
<rect x="46.666" y="84.167" width="5.91667" height="5.91667" fill="#FFC788"/>
<rect x="46.666" y="66.417" width="5.91667" height="5.91667" fill="#FFD6A6"/>
<rect x="52.583" y="48.667" width="5.91667" height="5.91667" fill="#FFD6A6"/>
<rect x="52.583" y="72.333" width="5.91667" height="5.91667" fill="#FFD6A6"/>
<rect x="52.583" y="78.25" width="5.91667" height="5.91667" fill="#FFD6A6"/>
<rect x="52.583" y="84.167" width="5.91667" height="5.91667" fill="#FFC788"/>
<rect x="52.583" y="54.583" width="5.91667" height="5.91667" fill="#FFD6A6"/>
<rect x="52.583" y="60.5" width="5.91667" height="5.91667" fill="#FFD6A6"/>
<rect x="52.583" y="66.417" width="5.91667" height="5.91667" fill="#955532"/>
<rect x="58.5" y="48.667" width="5.91667" height="5.91667" fill="#FFD6A6"/>
<rect x="58.5" y="72.333" width="5.91667" height="5.91667" fill="#FFD6A6"/>
<rect x="58.5" y="78.25" width="5.91667" height="5.91667" fill="#FFD6A6"/>
<rect x="58.5" y="84.167" width="5.91667" height="5.91667" fill="#FFC788"/>
<rect x="58.5" y="54.583" width="5.91667" height="5.91667" fill="#FFD6A6"/>
<rect x="58.5" y="60.5" width="5.91667" height="5.91667" fill="#FFD6A6"/>
<rect x="58.5" y="66.417" width="5.91667" height="5.91667" fill="#955532"/>
<rect x="64.416" y="42.75" width="5.91667" height="5.91667" fill="#FFD6A6"/>
<rect x="64.416" y="48.667" width="5.91667" height="5.91667" fill="#FFD6A6"/>
<rect x="64.416" y="72.333" width="5.91667" height="5.91667" fill="#FFD6A6"/>
<rect x="64.416" y="78.25" width="5.91667" height="5.91667" fill="#FFD6A6"/>
<rect x="70.333" y="78.25" width="5.91667" height="5.91667" fill="#FFC78E"/>
<rect x="64.416" y="84.167" width="5.91667" height="5.91667" fill="#FFC788"/>
<rect x="64.416" y="66.417" width="5.91667" height="5.91667" fill="#FFD6A6"/>
<rect x="70.333" y="42.75" width="5.91667" height="5.91667" fill="#FFD6A6"/>
<rect x="70.333" y="48.667" width="5.91667" height="5.91667" fill="#FFD6A6"/>
<rect x="70.333" y="66.417" width="5.91667" height="5.91667" fill="#FFD6A6"/>
<rect x="70.333" y="54.583" width="5.91667" height="5.91667" fill="#FFD6A6"/>
<rect x="70.333" y="60.5" width="5.91667" height="5.91667" fill="#FFD6A6"/>
<rect width="5.91667" height="5.91667" transform="matrix(-1 0 0 1 88.083 54.584)" fill="#FFD7A7"/>
<rect width="5.91667" height="5.91667" transform="matrix(-1 0 0 1 88.083 66.417)" fill="#FFD7A7"/>
<rect width="5.91667" height="5.91667" transform="matrix(-1 0 0 1 93.999 54.584)" fill="#FFD7A7"/>
<rect width="5.91667" height="5.91667" transform="matrix(-1 0 0 1 93.999 66.417)" fill="#FFD7A7"/>
<rect width="5.91667" height="5.91667" transform="matrix(-1 0 0 1 93.999 60.501)" fill="#FFD7A7"/>
<rect width="5.91667" height="5.91667" transform="matrix(-1 0 0 1 88.083 60.501)" fill="#F2A775"/>
<rect x="28.916" y="54.584" width="5.91667" height="5.91667" fill="#FFD7A7"/>
<rect x="28.916" y="66.417" width="5.91667" height="5.91667" fill="#FFD7A7"/>
<rect x="23" y="54.584" width="5.91667" height="5.91667" fill="#FFD7A7"/>
<rect x="23" y="66.417" width="5.91667" height="5.91667" fill="#FFD7A7"/>
<rect x="23" y="60.501" width="5.91667" height="5.91667" fill="#FFD7A7"/>
<rect x="28.916" y="60.501" width="5.91667" height="5.91667" fill="#F2A775"/>
</svg>
