<svg width="116" height="115" viewBox="0 0 116 115" fill="none" xmlns="http://www.w3.org/2000/svg">
<path d="M18.7723 19.893L41.4679 7.84473H58.2795H77.6129L96.1056 19.893L107.313 39.2264L110.115 58.5597L106.473 80.1346L96.3858 95.265L78.7336 107.033L58.2795 107.594L35.3037 105.072L18.7723 94.4244L7.84473 74.2505V41.4679L18.7723 19.893Z" fill="#FFB836"/>
<rect x="43.71" width="29.7005" height="4.48309" fill="#392619"/>
<rect width="29.7005" height="4.48309" transform="matrix(1 0 0 -1 43.71 114.879)" fill="#392619"/>
<rect x="35.3047" y="3.92285" width="8.4058" height="4.48309" fill="#392619"/>
<rect width="8.4058" height="4.48309" transform="matrix(1 0 0 -1 35.3047 110.957)" fill="#392619"/>
<rect x="26.8984" y="7.84473" width="8.4058" height="4.48309" fill="#392619"/>
<rect width="8.4058" height="4.48309" transform="matrix(1 0 0 -1 26.8984 107.034)" fill="#392619"/>
<rect x="22.416" y="11.7676" width="4.48309" height="4.48309" fill="#392619"/>
<rect width="4.48309" height="4.48309" transform="matrix(1 0 0 -1 22.416 103.11)" fill="#392619"/>
<rect x="17.9326" y="15.6904" width="4.48309" height="4.48309" fill="#392619"/>
<rect width="4.48309" height="4.48309" transform="matrix(1 0 0 -1 17.9326 99.1885)" fill="#392619"/>
<rect x="13.4492" y="19.6143" width="4.48309" height="4.48309" fill="#392619"/>
<rect width="4.48309" height="4.48309" transform="matrix(1 0 0 -1 13.4492 95.2656)" fill="#392619"/>
<rect x="8.96582" y="23.5361" width="4.48309" height="10.6473" fill="#392619"/>
<rect width="4.48309" height="10.6473" transform="matrix(1 0 0 -1 8.96582 91.3428)" fill="#392619"/>
<rect x="4.4834" y="34.1836" width="4.48309" height="8.4058" fill="#392619"/>
<rect x="43.709" y="3.92285" width="29.7005" height="4.48309" fill="#FFD16B"/>
<rect x="35.3037" y="7.8457" width="8.4058" height="4.48309" fill="#FFD16B"/>
<rect x="26.8984" y="11.7676" width="8.4058" height="4.48309" fill="#FFD16B"/>
<rect x="22.415" y="15.6904" width="8.4058" height="4.48309" fill="#FFD16B"/>
<rect x="17.9316" y="19.6133" width="8.96618" height="4.48309" fill="#FFD16B"/>
<rect x="17.9316" y="90.2227" width="4.48309" height="4.48309" fill="#FFD16B"/>
<rect x="22.415" y="94.7051" width="4.48309" height="4.48309" fill="#FFD16B"/>
<rect x="13.4482" y="23.5371" width="8.96618" height="4.48309" fill="#FFD16B"/>
<rect x="13.4482" y="28.0195" width="5.04348" height="4.48309" fill="#FFD16B"/>
<rect x="13.4482" y="80.6963" width="5.04348" height="10.087" fill="#FFD16B"/>
<rect x="8.96582" y="33.623" width="4.48309" height="10.6473" fill="#FFD16B"/>
<rect x="8.96582" y="72.29" width="4.48309" height="8.4058" fill="#FFD16B"/>
<rect x="4.48242" y="42.5898" width="4.48309" height="29.7005" fill="#FFD16B"/>
<rect width="4.48309" height="8.4058" transform="matrix(1 0 0 -1 4.4834 80.6953)" fill="#392619"/>
<rect y="42.5898" width="4.48309" height="29.7005" fill="#392619"/>
<rect width="8.4058" height="4.48309" transform="matrix(-1 0 0 1 80.6953 3.92285)" fill="#392619"/>
<rect x="80.6953" y="110.957" width="8.4058" height="4.48309" transform="rotate(-180 80.6953 110.957)" fill="#392619"/>
<rect width="8.4058" height="4.48309" transform="matrix(-1 0 0 1 89.1016 7.84473)" fill="#392619"/>
<rect x="89.1016" y="107.034" width="8.4058" height="4.48309" transform="rotate(-180 89.1016 107.034)" fill="#392619"/>
<rect width="4.48309" height="4.48309" transform="matrix(-1 0 0 1 93.584 11.7676)" fill="#392619"/>
<rect width="8.4058" height="4.48309" transform="matrix(-1 0 0 1 80.6953 7.8457)" fill="#FDA838"/>
<rect width="8.4058" height="4.48309" transform="matrix(-1 0 0 1 89.1016 12.3291)" fill="#FDA838"/>
<rect width="4.48309" height="4.48309" transform="matrix(-1 0 0 1 93.584 16.252)" fill="#FDA838"/>
<rect width="4.48309" height="4.48309" transform="matrix(-1 0 0 1 98.0674 20.1738)" fill="#FDA838"/>
<rect width="4.48309" height="10.087" transform="matrix(-1 0 0 1 102.551 24.0967)" fill="#FDA838"/>
<rect width="4.48309" height="12.3285" transform="matrix(-1 0 0 1 107.033 34.1846)" fill="#FDA838"/>
<rect width="4.48309" height="29.7005" transform="matrix(-1 0 0 1 111.517 42.5898)" fill="#FDA838"/>
<rect width="4.48309" height="8.4058" transform="matrix(-1 0 0 1 107.033 72.29)" fill="#FDA838"/>
<rect width="4.48309" height="10.087" transform="matrix(-1 0 0 1 102.551 80.6963)" fill="#FDA838"/>
<rect width="4.48309" height="5.60386" transform="matrix(-1 0 0 1 98.0674 89.1016)" fill="#FDA838"/>
<rect width="4.48309" height="5.60386" transform="matrix(-1 0 0 1 93.584 93.0244)" fill="#FDA838"/>
<rect width="8.4058" height="5.04348" transform="matrix(-1 0 0 1 89.1016 97.5068)" fill="#FDA838"/>
<rect width="8.4058" height="4.48309" transform="matrix(-1 0 0 1 80.6953 101.99)" fill="#FDA838"/>
<rect width="28.5797" height="4.48309" transform="matrix(-1 0 0 1 72.29 105.913)" fill="#FDA838"/>
<rect width="8.4058" height="4.48309" transform="matrix(-1 0 0 1 43.71 101.99)" fill="#FDA838"/>
<rect width="8.4058" height="4.48309" transform="matrix(-1 0 0 1 35.3047 98.0684)" fill="#FDA838"/>
<rect x="93.584" y="103.11" width="4.48309" height="4.48309" transform="rotate(-180 93.584 103.11)" fill="#392619"/>
<rect width="4.48309" height="4.48309" transform="matrix(-1 0 0 1 98.0674 15.6904)" fill="#392619"/>
<rect x="98.0674" y="99.1885" width="4.48309" height="4.48309" transform="rotate(-180 98.0674 99.1885)" fill="#392619"/>
<rect width="4.48309" height="4.48309" transform="matrix(-1 0 0 1 102.551 19.6143)" fill="#392619"/>
<rect x="102.551" y="95.2656" width="4.48309" height="4.48309" transform="rotate(-180 102.551 95.2656)" fill="#392619"/>
<rect width="4.48309" height="10.6473" transform="matrix(-1 0 0 1 107.034 23.5361)" fill="#392619"/>
<rect x="107.034" y="91.3428" width="4.48309" height="10.6473" transform="rotate(-180 107.034 91.3428)" fill="#392619"/>
<rect width="4.48309" height="8.4058" transform="matrix(-1 0 0 1 111.517 34.1836)" fill="#392619"/>
<rect x="111.517" y="80.6953" width="4.48309" height="8.4058" transform="rotate(-180 111.517 80.6953)" fill="#392619"/>
<rect width="4.48309" height="29.7005" transform="matrix(-1 0 0 1 116 42.5898)" fill="#392619"/>
<g clip-path="url(#clip0_665_50)">
<rect x="58" y="81.2002" width="5.79997" height="5.79997" fill="#F8BD8A"/>
<rect width="5.79997" height="5.79997" transform="matrix(-1 0 0 1 58 81.2002)" fill="#F8BD8A"/>
<rect x="58" y="75.3994" width="5.79997" height="5.79997" fill="#FFD6A5"/>
<rect width="5.79997" height="5.79997" transform="matrix(-1 0 0 1 58 75.3994)" fill="#FFD6A5"/>
<rect x="58" y="69.5996" width="5.79997" height="5.79997" fill="#7FA9BE"/>
<rect width="5.79997" height="5.79997" transform="matrix(-1 0 0 1 58 69.5996)" fill="#7FA9BE"/>
<rect x="58" y="63.7998" width="5.79997" height="5.79997" fill="#CD8558"/>
<rect width="5.79997" height="5.79997" transform="matrix(-1 0 0 1 58 63.7998)" fill="#CD8558"/>
<rect x="58" y="58" width="5.79997" height="5.79997" fill="#CD8558"/>
<rect width="5.79997" height="5.79997" transform="matrix(-1 0 0 1 58 58)" fill="#CD8558"/>
<rect x="58" y="52.2002" width="5.79997" height="5.79997" fill="#CD8558"/>
<rect width="5.79997" height="5.79997" transform="matrix(-1 0 0 1 58 52.2002)" fill="#CD8558"/>
<rect x="58" y="46.3994" width="5.79997" height="5.79997" fill="#CD8558"/>
<rect width="5.79997" height="5.79997" transform="matrix(-1 0 0 1 58 46.3994)" fill="#CD8558"/>
<rect x="58" y="40.6006" width="5.79997" height="5.79997" fill="#CD8558"/>
<rect width="5.79997" height="5.79997" transform="matrix(-1 0 0 1 58 40.6006)" fill="#CD8558"/>
<rect x="63.7998" y="81.2002" width="5.79997" height="5.79997" fill="#F8BD8A"/>
<rect width="5.79997" height="5.79997" transform="matrix(-1 0 0 1 52.2002 81.2002)" fill="#F8BD8A"/>
<rect x="63.7998" y="75.3994" width="5.79997" height="5.79997" fill="#FFD6A5"/>
<rect width="5.79997" height="5.79997" transform="matrix(-1 0 0 1 52.2002 75.3994)" fill="#FFD6A5"/>
<rect x="63.7998" y="69.5996" width="5.79997" height="5.79997" fill="#FFD6A5"/>
<rect width="5.79997" height="5.79997" transform="matrix(-1 0 0 1 52.2002 69.5996)" fill="#FFD6A5"/>
<rect x="63.7998" y="63.7998" width="5.79997" height="5.79997" fill="#CD8558"/>
<rect width="5.79997" height="5.79997" transform="matrix(-1 0 0 1 52.2002 63.7998)" fill="#CD8558"/>
<rect x="63.7998" y="58" width="5.79997" height="5.79997" fill="#241717"/>
<rect width="5.79997" height="5.79997" transform="matrix(-1 0 0 1 52.2002 58)" fill="#241717"/>
<rect x="63.7998" y="52.2002" width="5.79997" height="5.79997" fill="#241717"/>
<rect width="5.79997" height="5.79997" transform="matrix(-1 0 0 1 52.2002 52.2002)" fill="#241717"/>
<rect x="63.7998" y="46.3994" width="5.79997" height="5.79997" fill="#CD8558"/>
<rect width="5.79997" height="5.79997" transform="matrix(-1 0 0 1 52.2002 46.3994)" fill="#CD8558"/>
<rect x="63.7998" y="40.6006" width="5.79997" height="5.79997" fill="#CD8558"/>
<rect width="5.79997" height="5.79997" transform="matrix(-1 0 0 1 52.2002 40.6006)" fill="#CD8558"/>
<rect x="63.7998" y="34.7998" width="5.79997" height="5.79997" fill="#CD8558"/>
<rect width="5.79997" height="5.79997" transform="matrix(-1 0 0 1 52.2002 34.7998)" fill="#CD8558"/>
<rect x="69.5996" y="81.2002" width="5.79997" height="5.79997" fill="#B37859"/>
<rect width="5.79997" height="5.79997" transform="matrix(-1 0 0 1 46.4004 81.2002)" fill="#B37859"/>
<rect x="69.5996" y="75.3994" width="5.79997" height="5.79997" fill="#CD8558"/>
<rect width="5.79997" height="5.79997" transform="matrix(-1 0 0 1 46.4004 75.3994)" fill="#CD8558"/>
<rect x="75.4004" y="75.3994" width="5.79997" height="5.79997" fill="#B37859"/>
<rect width="5.79997" height="5.79997" transform="matrix(-1 0 0 1 40.6006 75.3994)" fill="#B37859"/>
<rect x="69.5996" y="69.5996" width="5.79997" height="5.79997" fill="#CD8558"/>
<rect width="5.79997" height="5.79997" transform="matrix(-1 0 0 1 46.4004 69.5996)" fill="#CD8558"/>
<rect x="75.4004" y="69.5996" width="5.79997" height="5.79997" fill="#CD8558"/>
<rect width="5.79997" height="5.79997" transform="matrix(-1 0 0 1 40.6006 69.5996)" fill="#CD8558"/>
<rect x="81.2002" y="69.5996" width="5.79997" height="5.79997" fill="#CD8558"/>
<rect width="5.79997" height="5.79997" transform="matrix(-1 0 0 1 34.7998 69.5996)" fill="#CD8558"/>
<rect x="69.5996" y="63.7998" width="5.79997" height="5.79997" fill="#CD8558"/>
<rect width="5.79997" height="5.79997" transform="matrix(-1 0 0 1 46.4004 63.7998)" fill="#CD8558"/>
<rect x="75.4004" y="63.7998" width="5.79997" height="5.79997" fill="#CD8558"/>
<rect width="5.79997" height="5.79997" transform="matrix(-1 0 0 1 40.6006 63.7998)" fill="#CD8558"/>
<rect x="81.2002" y="63.7998" width="5.79997" height="5.79997" fill="#CD8558"/>
<rect width="5.79997" height="5.79997" transform="matrix(-1 0 0 1 34.7998 63.7998)" fill="#CD8558"/>
<rect x="69.5996" y="58" width="5.79997" height="5.79997" fill="#CD8558"/>
<rect width="5.79997" height="5.79997" transform="matrix(-1 0 0 1 46.4004 58)" fill="#CD8558"/>
<rect x="75.4004" y="58" width="5.79997" height="5.79997" fill="#CD8558"/>
<rect width="5.79997" height="5.79997" transform="matrix(-1 0 0 1 40.6006 58)" fill="#CD8558"/>
<rect x="81.2002" y="58" width="5.79997" height="5.79997" fill="#CD8558"/>
<rect width="5.79997" height="5.79997" transform="matrix(-1 0 0 1 34.7998 58)" fill="#CD8558"/>
<rect x="69.5996" y="52.2002" width="5.79997" height="5.79997" fill="#CD8558"/>
<rect width="5.79997" height="5.79997" transform="matrix(-1 0 0 1 46.4004 52.2002)" fill="#CD8558"/>
<rect x="75.4004" y="52.2002" width="5.79997" height="5.79997" fill="#CD8558"/>
<rect width="5.79997" height="5.79997" transform="matrix(-1 0 0 1 40.6006 52.2002)" fill="#CD8558"/>
<rect x="81.2002" y="52.2002" width="5.79997" height="5.79997" fill="#CD8558"/>
<rect width="5.79997" height="5.79997" transform="matrix(-1 0 0 1 34.7998 52.2002)" fill="#CD8558"/>
<rect x="69.5996" y="46.3994" width="5.79997" height="5.79997" fill="#CD8558"/>
<rect width="5.79997" height="5.79997" transform="matrix(-1 0 0 1 46.4004 46.3994)" fill="#CD8558"/>
<rect x="75.4004" y="46.3994" width="5.79997" height="5.79997" fill="#CD8558"/>
<rect width="5.79997" height="5.79997" transform="matrix(-1 0 0 1 40.6006 46.3994)" fill="#CD8558"/>
<rect x="69.5996" y="40.6006" width="5.79997" height="5.79997" fill="#CD8558"/>
<rect width="5.79997" height="5.79997" transform="matrix(-1 0 0 1 46.4004 40.6006)" fill="#CD8558"/>
<rect x="69.5996" y="34.7998" width="5.79997" height="5.79997" fill="#FFCBC2"/>
<rect width="5.79997" height="5.79997" transform="matrix(-1 0 0 1 46.4004 34.7998)" fill="#FFCBC2"/>
<rect x="69.5996" y="29" width="5.79997" height="5.79997" fill="#CD8558"/>
<rect width="5.79997" height="5.79997" transform="matrix(-1 0 0 1 46.4004 29)" fill="#CD8558"/>
<rect x="75.4004" y="40.6006" width="5.79997" height="5.79997" fill="#CD8558"/>
<rect width="5.79997" height="5.79997" transform="matrix(-1 0 0 1 40.6006 40.6006)" fill="#CD8558"/>
<rect x="75.4004" y="34.7998" width="5.79997" height="5.79997" fill="#FFCBC2"/>
<rect width="5.79997" height="5.79997" transform="matrix(-1 0 0 1 40.6006 34.7998)" fill="#FFCBC2"/>
<rect x="75.4004" y="29" width="5.79997" height="5.79997" fill="#CD8558"/>
<rect width="5.79997" height="5.79997" transform="matrix(-1 0 0 1 40.6006 29)" fill="#CD8558"/>
<rect x="81.2002" y="40.6006" width="5.79997" height="5.79997" fill="#CD8558"/>
<rect width="5.79997" height="5.79997" transform="matrix(-1 0 0 1 34.7998 40.6006)" fill="#CD8558"/>
<rect x="81.2002" y="34.7998" width="5.79997" height="5.79997" fill="#CD8558"/>
<rect width="5.79997" height="5.79997" transform="matrix(-1 0 0 1 34.7998 34.7998)" fill="#CD8558"/>
</g>
<defs>
<clipPath id="clip0_665_50">
<rect width="57.9999" height="58" fill="white" transform="translate(29 29)"/>
</clipPath>
</defs>
</svg>
