<svg width="116" height="115" viewBox="0 0 116 115" fill="none" xmlns="http://www.w3.org/2000/svg">
<path d="M18.7723 19.893L41.4679 7.84473H58.2795H77.6129L96.1056 19.893L107.313 39.2264L110.115 58.5597L106.473 80.1346L96.3858 95.265L78.7336 107.033L58.2795 107.594L35.3037 105.072L18.7723 94.4244L7.84473 74.2505V41.4679L18.7723 19.893Z" fill="#59EB9C"/>
<rect x="43.71" width="29.7005" height="4.48309" fill="#392619"/>
<rect width="29.7005" height="4.48309" transform="matrix(1 0 0 -1 43.71 114.879)" fill="#392619"/>
<rect x="35.3047" y="3.92285" width="8.4058" height="4.48309" fill="#392619"/>
<rect width="8.4058" height="4.48309" transform="matrix(1 0 0 -1 35.3047 110.957)" fill="#392619"/>
<rect x="26.8984" y="7.84473" width="8.4058" height="4.48309" fill="#392619"/>
<rect width="8.4058" height="4.48309" transform="matrix(1 0 0 -1 26.8984 107.034)" fill="#392619"/>
<rect x="22.416" y="11.7676" width="4.48309" height="4.48309" fill="#392619"/>
<rect width="4.48309" height="4.48309" transform="matrix(1 0 0 -1 22.416 103.11)" fill="#392619"/>
<rect x="17.9326" y="15.6904" width="4.48309" height="4.48309" fill="#392619"/>
<rect width="4.48309" height="4.48309" transform="matrix(1 0 0 -1 17.9326 99.1885)" fill="#392619"/>
<rect x="13.4492" y="19.6143" width="4.48309" height="4.48309" fill="#392619"/>
<rect width="4.48309" height="4.48309" transform="matrix(1 0 0 -1 13.4492 95.2656)" fill="#392619"/>
<rect x="8.96582" y="23.5361" width="4.48309" height="10.6473" fill="#392619"/>
<rect width="4.48309" height="10.6473" transform="matrix(1 0 0 -1 8.96582 91.3428)" fill="#392619"/>
<rect x="4.4834" y="34.1836" width="4.48309" height="8.4058" fill="#392619"/>
<rect x="43.709" y="3.92285" width="29.7005" height="4.48309" fill="#ACF5CD"/>
<rect x="35.3037" y="7.8457" width="8.4058" height="4.48309" fill="#ACF5CD"/>
<rect x="26.8984" y="11.7676" width="8.4058" height="4.48309" fill="#ACF5CD"/>
<rect x="22.415" y="15.6904" width="8.4058" height="4.48309" fill="#ACF5CD"/>
<rect x="17.9316" y="19.6133" width="8.96618" height="4.48309" fill="#ACF5CD"/>
<rect x="17.9316" y="90.2227" width="4.48309" height="4.48309" fill="#ACF5CD"/>
<rect x="22.415" y="94.7051" width="4.48309" height="4.48309" fill="#ACF5CD"/>
<rect x="13.4482" y="23.5371" width="8.96618" height="4.48309" fill="#ACF5CD"/>
<rect x="13.4482" y="28.0195" width="5.04348" height="4.48309" fill="#ACF5CD"/>
<rect x="13.4482" y="80.6963" width="5.04348" height="10.087" fill="#ACF5CD"/>
<rect x="8.96582" y="33.623" width="4.48309" height="10.6473" fill="#ACF5CD"/>
<rect x="8.96582" y="72.29" width="4.48309" height="8.4058" fill="#ACF5CD"/>
<rect x="4.48242" y="42.5898" width="4.48309" height="29.7005" fill="#ACF5CD"/>
<rect width="4.48309" height="8.4058" transform="matrix(1 0 0 -1 4.4834 80.6953)" fill="#392619"/>
<rect y="42.5898" width="4.48309" height="29.7005" fill="#392619"/>
<rect width="8.4058" height="4.48309" transform="matrix(-1 0 0 1 80.6953 3.92285)" fill="#392619"/>
<rect x="80.6953" y="110.957" width="8.4058" height="4.48309" transform="rotate(-180 80.6953 110.957)" fill="#392619"/>
<rect width="8.4058" height="4.48309" transform="matrix(-1 0 0 1 89.1016 7.84473)" fill="#392619"/>
<rect x="89.1016" y="107.034" width="8.4058" height="4.48309" transform="rotate(-180 89.1016 107.034)" fill="#392619"/>
<rect width="4.48309" height="4.48309" transform="matrix(-1 0 0 1 93.584 11.7676)" fill="#392619"/>
<rect width="8.4058" height="4.48309" transform="matrix(-1 0 0 1 80.6953 7.8457)" fill="#16B55E"/>
<rect width="8.4058" height="4.48309" transform="matrix(-1 0 0 1 89.1016 12.3291)" fill="#16B55E"/>
<rect width="4.48309" height="4.48309" transform="matrix(-1 0 0 1 93.584 16.252)" fill="#16B55E"/>
<rect width="4.48309" height="4.48309" transform="matrix(-1 0 0 1 98.0674 20.1738)" fill="#16B55E"/>
<rect width="4.48309" height="10.087" transform="matrix(-1 0 0 1 102.551 24.0967)" fill="#16B55E"/>
<rect width="4.48309" height="12.3285" transform="matrix(-1 0 0 1 107.033 34.1846)" fill="#16B55E"/>
<rect width="4.48309" height="29.7005" transform="matrix(-1 0 0 1 111.517 42.5898)" fill="#16B55E"/>
<rect width="4.48309" height="8.4058" transform="matrix(-1 0 0 1 107.033 72.29)" fill="#16B55E"/>
<rect width="4.48309" height="10.087" transform="matrix(-1 0 0 1 102.551 80.6963)" fill="#16B55E"/>
<rect width="4.48309" height="5.60386" transform="matrix(-1 0 0 1 98.0674 89.1016)" fill="#16B55E"/>
<rect width="4.48309" height="5.60386" transform="matrix(-1 0 0 1 93.584 93.0244)" fill="#16B55E"/>
<rect width="8.4058" height="5.04348" transform="matrix(-1 0 0 1 89.1016 97.5068)" fill="#16B55E"/>
<rect width="8.4058" height="4.48309" transform="matrix(-1 0 0 1 80.6953 101.99)" fill="#16B55E"/>
<rect width="28.5797" height="4.48309" transform="matrix(-1 0 0 1 72.29 105.913)" fill="#16B55E"/>
<rect width="8.4058" height="4.48309" transform="matrix(-1 0 0 1 43.71 101.99)" fill="#16B55E"/>
<rect width="8.4058" height="4.48309" transform="matrix(-1 0 0 1 35.3047 98.0684)" fill="#16B55E"/>
<rect x="93.584" y="103.11" width="4.48309" height="4.48309" transform="rotate(-180 93.584 103.11)" fill="#392619"/>
<rect width="4.48309" height="4.48309" transform="matrix(-1 0 0 1 98.0674 15.6904)" fill="#392619"/>
<rect x="98.0674" y="99.1885" width="4.48309" height="4.48309" transform="rotate(-180 98.0674 99.1885)" fill="#392619"/>
<rect width="4.48309" height="4.48309" transform="matrix(-1 0 0 1 102.551 19.6143)" fill="#392619"/>
<rect x="102.551" y="95.2656" width="4.48309" height="4.48309" transform="rotate(-180 102.551 95.2656)" fill="#392619"/>
<rect width="4.48309" height="10.6473" transform="matrix(-1 0 0 1 107.034 23.5361)" fill="#392619"/>
<rect x="107.034" y="91.3428" width="4.48309" height="10.6473" transform="rotate(-180 107.034 91.3428)" fill="#392619"/>
<rect width="4.48309" height="8.4058" transform="matrix(-1 0 0 1 111.517 34.1836)" fill="#392619"/>
<rect x="111.517" y="80.6953" width="4.48309" height="8.4058" transform="rotate(-180 111.517 80.6953)" fill="#392619"/>
<rect width="4.48309" height="29.7005" transform="matrix(-1 0 0 1 116 42.5898)" fill="#392619"/>
<rect x="58.5" y="80.2998" width="5.7" height="5.7" fill="#DADADA"/>
<rect width="5.7" height="5.7" transform="matrix(-1 0 0 1 58.5 80.2998)" fill="#DADADA"/>
<rect x="58.5" y="74.5996" width="5.7" height="5.7" fill="#F0F0F0"/>
<rect width="5.7" height="5.7" transform="matrix(-1 0 0 1 58.5 74.5996)" fill="#F0F0F0"/>
<rect x="58.5" y="68.9004" width="5.7" height="5.7" fill="#FF9998"/>
<rect width="5.7" height="5.7" transform="matrix(-1 0 0 1 58.5 68.9004)" fill="#FF9998"/>
<rect x="58.5" y="63.2002" width="5.7" height="5.7" fill="#F0F0F0"/>
<rect width="5.7" height="5.7" transform="matrix(-1 0 0 1 58.5 63.2002)" fill="#F0F0F0"/>
<rect x="58.5" y="57.5" width="5.7" height="5.7" fill="#F0F0F0"/>
<rect width="5.7" height="5.7" transform="matrix(-1 0 0 1 58.5 57.5)" fill="#F0F0F0"/>
<rect x="58.5" y="51.7998" width="5.7" height="5.7" fill="#F0F0F0"/>
<rect width="5.7" height="5.7" transform="matrix(-1 0 0 1 58.5 51.7998)" fill="#F0F0F0"/>
<rect x="58.5" y="46.0996" width="5.7" height="5.7" fill="#F0F0F0"/>
<rect width="5.7" height="5.7" transform="matrix(-1 0 0 1 58.5 46.0996)" fill="#F0F0F0"/>
<rect x="58.5" y="40.4004" width="5.7" height="5.7" fill="#F0F0F0"/>
<rect width="5.7" height="5.7" transform="matrix(-1 0 0 1 58.5 40.4004)" fill="#F0F0F0"/>
<rect x="64.2002" y="80.2998" width="5.7" height="5.7" fill="#DADADA"/>
<rect width="5.7" height="5.7" transform="matrix(-1 0 0 1 52.7998 80.2998)" fill="#DADADA"/>
<rect x="64.2002" y="74.5996" width="5.7" height="5.7" fill="#F0F0F0"/>
<rect width="5.7" height="5.7" transform="matrix(-1 0 0 1 52.7998 74.5996)" fill="#F0F0F0"/>
<rect x="64.2002" y="68.9004" width="5.7" height="5.7" fill="#F0F0F0"/>
<rect width="5.7" height="5.7" transform="matrix(-1 0 0 1 52.7998 68.9004)" fill="#F0F0F0"/>
<rect x="64.2002" y="63.2002" width="5.7" height="5.7" fill="#1F191A"/>
<rect width="5.7" height="5.7" transform="matrix(-1 0 0 1 52.7998 63.2002)" fill="#1F191A"/>
<rect x="64.2002" y="57.5" width="5.7" height="5.7" fill="#FEFEFE"/>
<rect width="5.7" height="5.7" transform="matrix(-1 0 0 1 52.7998 57.5)" fill="#FEFEFE"/>
<rect x="64.2002" y="51.7998" width="5.7" height="5.7" fill="#1F191A"/>
<rect width="5.7" height="5.7" transform="matrix(-1 0 0 1 52.7998 51.7998)" fill="#1F191A"/>
<rect x="64.2002" y="34.7002" width="5.7" height="5.7" fill="#1F191A"/>
<rect width="5.7" height="5.7" transform="matrix(-1 0 0 1 52.7998 34.7002)" fill="#1F191A"/>
<rect x="64.2002" y="46.0996" width="5.7" height="5.7" fill="#F0F0F0"/>
<rect width="5.7" height="5.7" transform="matrix(-1 0 0 1 52.7998 46.0996)" fill="#F0F0F0"/>
<rect x="64.2002" y="40.4004" width="5.7" height="5.7" fill="#F0F0F0"/>
<rect width="5.7" height="5.7" transform="matrix(-1 0 0 1 52.7998 40.4004)" fill="#F0F0F0"/>
<rect x="69.9004" y="80.2998" width="5.7" height="5.7" fill="#DADADA"/>
<rect width="5.7" height="5.7" transform="matrix(-1 0 0 1 47.0996 80.2998)" fill="#DADADA"/>
<rect x="69.9004" y="74.5996" width="5.7" height="5.7" fill="#F0F0F0"/>
<rect width="5.7" height="5.7" transform="matrix(-1 0 0 1 47.0996 74.5996)" fill="#F0F0F0"/>
<rect x="75.5996" y="74.5996" width="5.7" height="5.7" fill="#DADADA"/>
<rect width="5.7" height="5.7" transform="matrix(-1 0 0 1 41.4004 74.5996)" fill="#DADADA"/>
<rect x="69.9004" y="68.9004" width="5.7" height="5.7" fill="#F0F0F0"/>
<rect width="5.7" height="5.7" transform="matrix(-1 0 0 1 47.0996 68.9004)" fill="#F0F0F0"/>
<rect x="75.5996" y="68.9004" width="5.7" height="5.7" fill="#F0F0F0"/>
<rect width="5.7" height="5.7" transform="matrix(-1 0 0 1 41.4004 68.9004)" fill="#F0F0F0"/>
<rect x="81.2998" y="68.9004" width="5.7" height="5.7" fill="#F0F0F0"/>
<rect width="5.7" height="5.7" transform="matrix(-1 0 0 1 35.7002 68.9004)" fill="#F0F0F0"/>
<rect x="69.9004" y="63.2002" width="5.7" height="5.7" fill="#1F191A"/>
<rect width="5.7" height="5.7" transform="matrix(-1 0 0 1 47.0996 63.2002)" fill="#1F191A"/>
<rect x="75.5996" y="63.2002" width="5.7" height="5.7" fill="#1F191A"/>
<rect width="5.7" height="5.7" transform="matrix(-1 0 0 1 41.4004 63.2002)" fill="#1F191A"/>
<rect x="81.2998" y="63.2002" width="5.7" height="5.7" fill="#F0F0F0"/>
<rect width="5.7" height="5.7" transform="matrix(-1 0 0 1 35.7002 63.2002)" fill="#F0F0F0"/>
<rect x="69.9004" y="57.5" width="5.7" height="5.7" fill="#1F191A"/>
<rect width="5.7" height="5.7" transform="matrix(-1 0 0 1 47.0996 57.5)" fill="#1F191A"/>
<rect x="75.5996" y="57.5" width="5.7" height="5.7" fill="#1F191A"/>
<rect width="5.7" height="5.7" transform="matrix(-1 0 0 1 41.4004 57.5)" fill="#1F191A"/>
<rect x="81.2998" y="57.5" width="5.7" height="5.7" fill="#F0F0F0"/>
<rect width="5.7" height="5.7" transform="matrix(-1 0 0 1 35.7002 57.5)" fill="#F0F0F0"/>
<rect x="69.9004" y="51.7998" width="5.7" height="5.7" fill="#1F191A"/>
<rect width="5.7" height="5.7" transform="matrix(-1 0 0 1 47.0996 51.7998)" fill="#1F191A"/>
<rect x="69.9004" y="34.7002" width="5.7" height="5.7" fill="#FFB4AE"/>
<rect width="5.7" height="5.7" transform="matrix(-1 0 0 1 47.0996 34.7002)" fill="#FFB4AE"/>
<rect x="69.9004" y="29" width="5.7" height="5.7" fill="#1F191A"/>
<rect width="5.7" height="5.7" transform="matrix(-1 0 0 1 47.0996 29)" fill="#1F191A"/>
<rect x="75.5996" y="51.7998" width="5.7" height="5.7" fill="#F0F0F0"/>
<rect width="5.7" height="5.7" transform="matrix(-1 0 0 1 41.4004 51.7998)" fill="#F0F0F0"/>
<rect x="75.5996" y="34.7002" width="5.7" height="5.7" fill="#FFB4AE"/>
<rect width="5.7" height="5.7" transform="matrix(-1 0 0 1 41.4004 34.7002)" fill="#FFB4AE"/>
<rect x="75.5996" y="29" width="5.7" height="5.7" fill="#1F191A"/>
<rect width="5.7" height="5.7" transform="matrix(-1 0 0 1 41.4004 29)" fill="#1F191A"/>
<rect x="81.2998" y="51.7998" width="5.7" height="5.7" fill="#F0F0F0"/>
<rect width="5.7" height="5.7" transform="matrix(-1 0 0 1 35.7002 51.7998)" fill="#F0F0F0"/>
<rect x="81.2998" y="34.7002" width="5.7" height="5.7" fill="#1F191A"/>
<rect width="5.7" height="5.7" transform="matrix(-1 0 0 1 35.7002 34.7002)" fill="#1F191A"/>
<rect x="69.9004" y="46.0996" width="5.7" height="5.7" fill="#F0F0F0"/>
<rect width="5.7" height="5.7" transform="matrix(-1 0 0 1 47.0996 46.0996)" fill="#F0F0F0"/>
<rect x="75.5996" y="46.0996" width="5.7" height="5.7" fill="#F0F0F0"/>
<rect width="5.7" height="5.7" transform="matrix(-1 0 0 1 41.4004 46.0996)" fill="#F0F0F0"/>
<rect x="69.9004" y="40.4004" width="5.7" height="5.7" fill="#1F191A"/>
<rect width="5.7" height="5.7" transform="matrix(-1 0 0 1 47.0996 40.4004)" fill="#1F191A"/>
<rect x="75.5996" y="40.4004" width="5.7" height="5.7" fill="#1F191A"/>
<rect width="5.7" height="5.7" transform="matrix(-1 0 0 1 41.4004 40.4004)" fill="#1F191A"/>
</svg>
