<svg width="58" height="62" viewBox="0 0 58 62" fill="none" xmlns="http://www.w3.org/2000/svg">
<path d="M0 0.688477H57.5207L56.8692 7.69128L0.84685 7.56099L0 0.688477Z" fill="white"/>
<path d="M10.6821 37.9496L29.4756 52.8021L30.207 57.0897L29.4756 61.1729L5.2101 41.9559L10.6821 37.9496Z" fill="white"/>
<path d="M10.3581 34.4002L10.7164 38.0482L8.58244 40.5935L5.2119 41.9567L3.61565 29.3191L10.3581 34.4002Z" fill="white"/>
<path d="M47.783 38.1459L29.4781 52.8029L29.1197 56.9395L29.478 61.1737L53.3852 41.7939L51.9427 35.4661L47.783 38.1459Z" fill="white"/>
<path d="M19.4775 30.8818H42.9613L40.6488 36.9726H17.8164L19.4775 30.8818Z" fill="white"/>
<path d="M0.828125 7.33984L7.71794 6.8446L8.98822 22.9022L3.09284 25.7033L0.828125 7.33984Z" fill="white"/>
<path d="M3.09473 25.7031L8.92496 22.7391L19.9666 30.9471L17.8143 36.9727L3.09473 25.7031Z" fill="white"/>
<path d="M3.09473 25.7031L8.92496 22.7391L19.9666 30.9471L17.8143 36.9727L3.09473 25.7031Z" fill="white"/>
<path d="M50.9412 6.92054L56.9343 6.97536L55.3059 23.6192L49.7688 18.9941L50.9412 6.92054Z" fill="white"/>
<rect x="17.7197" y="15.085" width="23.6467" height="6.12338" fill="white"/>
<path d="M41.3701 15.085L54.85 26.2243L49.6712 29.8723L37.3705 20.036L41.3701 15.085Z" fill="white"/>
<path d="M54.8486 26.2236L53.3829 41.7926L47.7807 38.1447L48.6458 25.8979L54.8486 26.2236Z" fill="white"/>
<path d="M10.0322 21.4365L17.7191 15.0852L21.8556 19.0915L14.8853 24.8565L10.0322 21.4365Z" fill="white"/>
<path d="M38.7588 30.8495L43.2536 27.1689L47.097 30.7843L40.6479 36.9729L38.7588 30.8495Z" fill="white"/>
</svg>
